<?xml version="1.0" encoding="UTF-8"?>
<!DOCTYPE svg PUBLIC "-//W3C//DTD SVG 1.1//EN" "http://www.w3.org/Graphics/SVG/1.1/DTD/svg11.dtd">
<!-- Creator: CorelDRAW X8 -->
<svg xmlns="http://www.w3.org/2000/svg" xml:space="preserve" width="32px" height="32px" version="1.1" style="shape-rendering:geometricPrecision; text-rendering:geometricPrecision; image-rendering:optimizeQuality; fill-rule:evenodd; clip-rule:evenodd"
viewBox="0 0 5112 5103"
 xmlns:xlink="http://www.w3.org/1999/xlink">
 <defs>
  <style type="text/css">
   <![CDATA[
    .fil0 {fill:#61EFF9}
    .fil1 {fill:#333333;fill-rule:nonzero}
   ]]>
  </style>
 </defs>
 <g id="Plan_x0020_1">
  <metadata id="CorelCorpID_0Corel-Layer"/>
  <g id="_2085450575264">
   <g>
    <path class="fil0" d="M2343 1314c-249,-43 -438,-260 -438,-521 0,-292 253,-529 529,-529 276,0 502,186 538,414 -9,-382 287,-678 652,-678 365,0 661,296 661,661 0,365 -296,661 -661,661l-1281 -8zm759 829l0 1375 0 -1375zm-2010 0l4020 0 -4020 0zm95 -821l1162 0 -6 -8 1303 8 -683 -661 270 262 391 399 1 0 1393 0c52,0 94,43 94,95l0 2509c0,52 -42,94 -94,94l-3831 0c-53,0 -95,-42 -95,-94l0 -2509c0,-52 42,-95 95,-95z"/>
   </g>
   <path class="fil1" d="M1137 2171c68,69 162,111 267,111l0 1 1133 0 0 -1c139,0 265,-56 356,-147 91,-91 147,-217 147,-356 0,-140 -56,-265 -147,-356 -91,-91 -217,-148 -356,-148 -139,0 -265,57 -356,148 -91,91 -148,216 -148,356l-12 0c8,40 12,82 12,125l-251 0c0,-104 -43,-199 -111,-267 -68,-68 -163,-110 -267,-110 -105,0 -199,42 -267,110 -69,68 -111,163 -111,267 0,105 42,199 111,267zm-236 112c-80,-106 -127,-237 -127,-379 0,-174 71,-331 185,-445 114,-114 271,-184 445,-184 174,0 331,70 445,184l2 2c38,-80 90,-154 152,-216 137,-137 325,-222 534,-222 208,0 397,85 533,222l1 0c136,137 221,326 221,534 0,193 -73,370 -193,504l765 0c59,0 113,24 152,63l0 1c40,39 64,93 64,152l0 2388c0,59 -24,113 -64,152l0 1c-39,39 -93,63 -152,63l-3648 0c-59,0 -113,-24 -152,-63l-1 -1c-39,-39 -63,-93 -63,-152l0 -2388c0,-59 24,-113 63,-152l1 -1c39,-39 93,-63 152,-63l685 0zm1265 1032l0 1184 -252 0 0 -1184 -1662 0 0 1536 3576 0 0 -1536 -1662 0zm-1914 -251l3576 0 0 -530 -3576 0 0 530z"/>
  </g>
 </g>
</svg>
