<?xml version="1.0" encoding="UTF-8"?>
<!DOCTYPE svg PUBLIC "-//W3C//DTD SVG 1.1//EN" "http://www.w3.org/Graphics/SVG/1.1/DTD/svg11.dtd">
<!-- Creator: CorelDRAW X8 -->
<svg xmlns="http://www.w3.org/2000/svg" xml:space="preserve" width="32px" height="32px" version="1.1" style="shape-rendering:geometricPrecision; text-rendering:geometricPrecision; image-rendering:optimizeQuality; fill-rule:evenodd; clip-rule:evenodd"
viewBox="0 0 11853 11909"
 xmlns:xlink="http://www.w3.org/1999/xlink">
 <defs>
  <style type="text/css">
   <![CDATA[
    .fil0 {fill:#61EFF9}
    .fil1 {fill:#333333;fill-rule:nonzero}
   ]]>
  </style>
 </defs>
 <g id="Plan_x0020_1">
  <metadata id="CorelCorpID_0Corel-Layer"/>
  <g id="_2085588574480">
   <rect class="fil0" x="2348" width="9504" height="9560" rx="645" ry="173"/>
   <path class="fil1" d="M462 4808l1425 0c127,0 242,52 326,136 83,83 135,199 135,326l0 6177c0,127 -52,243 -135,326 -84,84 -199,136 -326,136l-1425 0c-127,0 -243,-52 -326,-136 -84,-83 -136,-199 -136,-326l0 -6177c0,-127 52,-243 136,-326 83,-84 199,-136 326,-136zm7156 -2348l1424 0c128,0 243,52 327,136l0 1c83,83 135,198 135,325l0 8525c0,126 -52,241 -135,325l0 1c-84,84 -199,136 -327,136l-1424 0c-127,0 -243,-52 -326,-136l0 -1c-84,-84 -136,-199 -136,-325l0 -8525c0,-127 52,-242 136,-325l0 -1c83,-84 199,-136 326,-136zm1327 559l-1230 0 0 8331 1230 0 0 -8331zm-4961 4138l1425 0c127,0 242,51 326,135 83,83 135,199 135,326l0 3829c0,127 -52,243 -135,326 -84,84 -199,136 -326,136l-1425 0c-127,0 -243,-52 -326,-136 -84,-83 -135,-199 -135,-326l0 -3829c0,-127 51,-243 135,-326 83,-84 199,-135 326,-135zm1327 559l-1230 0 0 3634 1230 0 0 -3634zm-3522 -2349l-1230 0 0 5983 1230 0 0 -5983z"/>
  </g>
 </g>
</svg>
