<?xml version="1.0" encoding="UTF-8"?>
<!DOCTYPE svg PUBLIC "-//W3C//DTD SVG 1.1//EN" "http://www.w3.org/Graphics/SVG/1.1/DTD/svg11.dtd">
<!-- Creator: CorelDRAW X8 -->
<svg xmlns="http://www.w3.org/2000/svg" xml:space="preserve" width="912px" height="144px" version="1.1" style="shape-rendering:geometricPrecision; text-rendering:geometricPrecision; image-rendering:optimizeQuality; fill-rule:evenodd; clip-rule:evenodd"
viewBox="0 0 911968 143961"
 xmlns:xlink="http://www.w3.org/1999/xlink">
 <defs>
  <style type="text/css">
   <![CDATA[
    .fil3 {fill:#1A1A1A;fill-rule:nonzero}
    .fil0 {fill:url(#id0)}
    .fil2 {fill:url(#id1)}
    .fil1 {fill:url(#id2)}
   ]]>
  </style>
  <linearGradient id="id0" gradientUnits="userSpaceOnUse" x1="15888.6" y1="86225.9" x2="90472.4" y2="6361.16">
   <stop offset="0" style="stop-opacity:1; stop-color:#F95063"/>
   <stop offset="1" style="stop-opacity:1; stop-color:#FFDC57"/>
  </linearGradient>
  <linearGradient id="id1" gradientUnits="userSpaceOnUse" x1="107156" y1="68181.5" x2="137729" y2="54698.7">
   <stop offset="0" style="stop-opacity:1; stop-color:#FC8E5E"/>
   <stop offset="1" style="stop-opacity:1; stop-color:#FF71FF"/>
  </linearGradient>
  <linearGradient id="id2" gradientUnits="userSpaceOnUse" x1="132541" y1="93060.4" x2="58873.4" y2="127639">
   <stop offset="0" style="stop-opacity:1; stop-color:#6BCEFF"/>
   <stop offset="1" style="stop-opacity:1; stop-color:#8A3CFF"/>
  </linearGradient>
 </defs>
 <g id="Plan_x0020_1">
  <metadata id="CorelCorpID_0Corel-Layer"/>
  <g id="_1329513736016">
   <g>
    <path class="fil0" d="M133267 92940c14463,-15199 14218,-39346 -614,-54176l-1347 -1348 -123 0 -5516 -5639 -1961 -1838 0 0 -18508 -18631c-15077,-15076 -39714,-15076 -54790,0l-47190 47190c-4289,4289 -4289,11154 0,15322l12135 12258c4289,4167 11154,4167 15322,0l47190 -47190 27211 27088 28192 26965 -1 -1z"/>
    <path class="fil1" d="M57885 128609l12257 12134c4168,4290 11032,4290 15323,0l47190 -47190c245,-245 367,-490 613,-613l0 0 -27946 -26721c-981,981 -2084,1838 -3187,2819l-44249 44248c-4168,4168 -4168,11032 0,15323l-1 0z"/>
    <path class="fil2" d="M133267 92940c3309,-3555 5883,-7477 7599,-11767l123 -246c123,-123 123,-246 246,-367 0,-246 123,-368 123,-614l122 0c10787,-29049 -11031,-43881 -28559,-60795 -857,-858 -1716,-1961 -2818,-2451 4289,6128 6742,12502 6742,21818 0,9315 -4658,20715 -11522,27701l27946 26721 -2 0z"/>
   </g>
   <path class="fil3" d="M205707 16701l-27824 0 0 79426 27824 0c25373,0 41797,-15566 41797,-39590 0,-24147 -16424,-39836 -41797,-39836zm-11889 65944l0 -52462 11277 0c16670,0 26108,9928 26108,26354 0,16547 -9438,26108 -26108,26108l-11277 0zm65699 13482l15934 0 0 -52583 -15934 0 0 52583zm8089 -60182c5516,0 9683,-4045 9683,-9315 0,-5271 -4167,-9315 -9683,-9315 -5762,0 -9807,4045 -9807,9315 0,5271 4045,9315 9807,9315zm19367 28436c0,19734 12748,32850 28805,32850 9928,0 17160,-4903 20837,-10419l0 9807c0,11767 -6863,16670 -15566,16670 -7967,0 -13850,-3678 -15444,-9438l-15812 0c1593,14463 13973,23411 31746,23411 20715,0 31133,-13606 31133,-30643l0 -63493 -16057 0 0 8948c-3677,-5393 -10908,-9928 -20837,-9928 -16057,0 -28805,12625 -28805,32236l0 -1zm49641 246c0,12012 -7967,18508 -16670,18508 -8580,0 -16670,-6742 -16670,-18754 0,-11889 8090,-18264 16670,-18264 8703,0 16670,6620 16670,18509l0 1zm31624 31500l15934 0 0 -52583 -15934 0 0 52583zm8090 -60182c5638,0 9806,-4045 9806,-9315 0,-5271 -4168,-9315 -9806,-9315 -5639,0 -9807,4045 -9807,9315 0,5271 4168,9315 9807,9315zm26107 40694c0,14340 8090,19488 20102,19488l10051 0 0 -13359 -7477 0c-4902,0 -6619,-1839 -6619,-6006l0 -30521 14096 0 0 -13115 -14096 0 0 -15566 -16057 0 0 15566 -7476 0 0 13115 7476 0 0 30399 0 -1zm37508 -12258c0,19734 12748,32850 28682,32850 10051,0 17160,-4780 20960,-10297l0 9193 16056 0 0 -63002 -16056 0 0 8947c-3800,-5148 -10665,-9928 -20838,-9928 -16057,0 -28805,12626 -28805,32237l1 0zm49642 246c0,12012 -7967,18508 -16793,18508 -8458,0 -16547,-6742 -16547,-18754 0,-11889 8089,-18264 16547,-18264 8824,0 16793,6620 16793,18509l0 1zm31623 31500l15934 0 0 -78813 -15934 0 0 78813zm108722 0l15934 0 0 -78813 -15934 0 0 32114 -34075 0 0 -32114 -15934 0 0 78813 15934 0 0 -33707 34075 0 0 33707zm92542 -31500c0,-19857 -14341,-32481 -32481,-32481 -18264,0 -32482,12625 -32482,32481 0,19857 13851,32604 31991,32604 18386,0 32972,-12748 32972,-32604zm-48784 0c0,-12625 7600,-18631 16057,-18631 8457,0 16302,6006 16302,18631 0,12502 -8089,18631 -16547,18631 -8457,0 -15812,-6129 -15812,-18631zm148681 31500l15934 0 0 -36894c0,-17528 -10787,-27089 -25863,-27089 -9194,0 -17528,4903 -21573,12135 -4412,-7844 -12502,-12135 -22309,-12135 -7844,0 -14463,3309 -18508,8581l0 -7600 -15934 0 0 63002 15934 0 0 -34810c0,-10051 5639,-15200 14219,-15200 8457,0 13973,5149 13973,15200l0 34810 15934 0 0 -34810c0,-10051 5639,-15200 14096,-15200 8457,0 14096,5149 14096,15200l0 34810 1 0zm58098 -50990c8213,0 14832,5271 15077,13605l-30030 0c1348,-8702 7354,-13605 14953,-13605zm29909 31256l-17161 0c-2083,4168 -5761,7600 -12625,7600 -7967,0 -14340,-5272 -15076,-14586l46087 0c245,-2084 367,-4045 367,-6129 0,-18754 -12869,-31134 -31010,-31134 -18631,0 -31624,12626 -31624,32482 0,19857 13238,32604 31624,32604 15566,0 25985,-9315 29418,-20838l0 1z"/>
  </g>
 </g>
</svg>
