<svg xmlns:xlink="http://www.w3.org/1999/xlink" xmlns="http://www.w3.org/2000/svg" height="93" width="87" viewBox="0 0 87 93">
    <path stroke-linejoin="miter" stroke-linecap="butt" stroke-width="1" stroke="#f75260" fill="none" opacity="0.2" fill-rule="evenodd" d="M 3 39.36 C 3 39.36 3 89.02 3 89.02 C 3 89.02 2 89.02 2 89.02 C 2 89.02 2 39.27 2 39.27 C 2 39.27 1.79 38.82 1.79 38.82 C 1.79 38.82 85.79 0.01 85.79 0.01 C 85.79 0.01 86.2 0.92 86.2 0.92 C 86.2 0.92 3 39.36 3 39.36 Z"/>
    <path fill="#f75260" fill-rule="evenodd" d="M 2.5 88.03 C 3.88 88.03 5 89.14 5 90.52 C 5 91.89 3.88 93 2.5 93 C 1.12 93 0 91.89 0 90.52 C 0 89.14 1.12 88.03 2.5 88.03 Z"/>
</svg>